<svg width="3000" height="3000" viewBox="0 0 3000 3000" fill="none" xmlns="http://www.w3.org/2000/svg">
<line x1="1077" y1="1674.11" x2="1071.14" y2="861.107" stroke="url(#paint0_linear_3_4)" stroke-width="30"/>
<line x1="1910.86" y1="1674.11" x2="1905" y2="861.108" stroke="url(#paint1_linear_3_4)" stroke-width="30"/>
<line x1="1221" y1="1673.97" x2="1223" y2="799.966" stroke="url(#paint2_linear_3_4)" stroke-width="30"/>
<line x1="1763" y1="1674" x2="1763.14" y2="800.998" stroke="url(#paint3_linear_3_4)" stroke-width="30"/>
<path d="M1478.94 1355.5C1484.29 1361.62 1493.59 1362.25 1499.71 1356.9C1505.83 1351.55 1506.46 1342.24 1501.11 1336.12L1478.94 1355.5ZM1063.91 880.689L1478.94 1355.5L1501.11 1336.12L1086.09 861.31L1063.91 880.689Z" fill="url(#paint4_linear_3_4)"/>
<line x1="1487.77" y1="1348.2" x2="1900.51" y2="873.241" stroke="url(#paint5_linear_3_4)" stroke-width="29.7563"/>
<path d="M1478.71 1133.45C1483.93 1139.69 1493.22 1140.51 1499.45 1135.29C1505.69 1130.07 1506.51 1120.78 1501.29 1114.55L1478.71 1133.45ZM1215.71 819.454L1478.71 1133.45L1501.29 1114.55L1238.29 800.546L1215.71 819.454Z" fill="url(#paint6_linear_3_4)"/>
<line x1="1486.84" y1="1127.33" x2="1758.28" y2="809.35" stroke="url(#paint7_linear_3_4)" stroke-width="29.7563"/>
<line x1="1089" y1="1659" x2="1210" y2="1659" stroke="url(#paint8_linear_3_4)" stroke-width="30"/>
<line x1="1769" y1="1659" x2="1897" y2="1659" stroke="url(#paint9_linear_3_4)" stroke-width="30"/>
<defs>
<linearGradient id="paint0_linear_3_4" x1="1092.5" y1="1674" x2="1086.64" y2="860.995" gradientUnits="userSpaceOnUse">
<stop offset="1" stop-color="#9D3872"/>
</linearGradient>
<linearGradient id="paint1_linear_3_4" x1="1926.36" y1="1674" x2="1920.5" y2="860.996" gradientUnits="userSpaceOnUse">
<stop offset="0.5" stop-color="#B92F55"/>
</linearGradient>
<linearGradient id="paint2_linear_3_4" x1="1236.5" y1="1674" x2="1238.5" y2="800.001" gradientUnits="userSpaceOnUse">
<stop offset="1" stop-color="#9D3872"/>
</linearGradient>
<linearGradient id="paint3_linear_3_4" x1="1778.5" y1="1674" x2="1778.64" y2="801" gradientUnits="userSpaceOnUse">
<stop offset="0.5" stop-color="#B92F55"/>
</linearGradient>
<linearGradient id="paint4_linear_3_4" x1="1074.62" y1="871.329" x2="1489.65" y2="1346.14" gradientUnits="userSpaceOnUse">
<stop offset="0.242252" stop-color="#9D3872"/>
<stop offset="0.35" stop-color="#A2376E"/>
<stop offset="0.65" stop-color="#A63569"/>
</linearGradient>
<linearGradient id="paint5_linear_3_4" x1="1499.38" y1="1358.29" x2="1912.12" y2="883.328" gradientUnits="userSpaceOnUse">
<stop offset="0.07" stop-color="#AB3364"/>
<stop offset="0.5" stop-color="#A63569"/>
<stop offset="0.678464" stop-color="#B82F56"/>
</linearGradient>
<linearGradient id="paint6_linear_3_4" x1="1226.62" y1="810.321" x2="1489.62" y2="1124.32" gradientUnits="userSpaceOnUse">
<stop offset="0.0603407" stop-color="#A2376E"/>
<stop offset="0.5" stop-color="#A63569"/>
<stop offset="0.91" stop-color="#AB3364"/>
</linearGradient>
<linearGradient id="paint7_linear_3_4" x1="1498.53" y1="1137.31" x2="1769.97" y2="819.335" gradientUnits="userSpaceOnUse">
<stop offset="0.122165" stop-color="#AB3364"/>
<stop offset="0.5" stop-color="#A63569"/>
<stop offset="0.888172" stop-color="#B82F56"/>
</linearGradient>
<linearGradient id="paint8_linear_3_4" x1="1089" y1="1674.5" x2="1210" y2="1674.5" gradientUnits="userSpaceOnUse">
<stop offset="0.5" stop-color="#9D3872"/>
</linearGradient>
<linearGradient id="paint9_linear_3_4" x1="1769" y1="1674.5" x2="1897" y2="1674.5" gradientUnits="userSpaceOnUse">
<stop offset="0.5" stop-color="#B92F55"/>
</linearGradient>
</defs>
</svg>
